<svg width="50" height="50" viewBox="0 0 50 50" fill="none" xmlns="http://www.w3.org/2000/svg">
<path d="M25 0C27.2949 0 29.5085 0.294695 31.6406 0.884086C33.7728 1.47348 35.7585 2.32482 37.5977 3.43811C39.4368 4.55141 41.1214 5.86117 42.6514 7.36739C44.1813 8.87361 45.4915 10.5681 46.582 12.4509C47.6725 14.3337 48.5107 16.3392 49.0967 18.4676C49.6826 20.5959 49.9837 22.8225 50 25.1473C50 27.2102 49.764 29.2076 49.292 31.1395C48.82 33.0714 48.1364 34.9132 47.2412 36.665C46.346 38.4168 45.2718 40.0213 44.0186 41.4784C42.7653 42.9355 41.3493 44.2534 39.7705 45.4322C38.1917 46.611 36.499 47.5769 34.6924 48.3301C32.8857 49.0832 30.957 49.6398 28.9062 50V32.4165H34.7412L35.8398 25.1473H28.9062V20.4322C28.9062 19.5318 29.0527 18.8196 29.3457 18.2957C29.6387 17.7718 30.0293 17.3788 30.5176 17.1169C31.0059 16.8549 31.5592 16.683 32.1777 16.6012C32.7962 16.5193 33.4391 16.4784 34.1064 16.4784H35.1318C35.4736 16.4784 35.8073 16.4866 36.1328 16.5029V10.3143C35.2214 10.1506 34.2936 10.0278 33.3496 9.94597C32.4056 9.86411 31.4697 9.82318 30.542 9.82318C29.0283 9.82318 27.6855 10.0524 26.5137 10.5108C25.3418 10.9692 24.3571 11.6241 23.5596 12.4754C22.762 13.3268 22.1517 14.35 21.7285 15.5452C21.3053 16.7403 21.0938 18.091 21.0938 19.5972V25.1473H14.7461V32.4165H21.0938V50C19.0592 49.6889 17.1305 49.1405 15.3076 48.3546C13.4847 47.5688 11.792 46.6028 10.2295 45.4568C8.66699 44.3107 7.25911 42.9928 6.00586 41.5029C4.7526 40.0131 3.67839 38.4005 2.7832 36.665C1.88802 34.9296 1.20443 33.0959 0.732422 31.164C0.260417 29.2322 0.016276 27.2266 0 25.1473C0 22.8389 0.292969 20.6123 0.878906 18.4676C1.46484 16.3229 2.3112 14.3255 3.41797 12.4754C4.52474 10.6254 5.82682 8.93091 7.32422 7.39194C8.82161 5.85298 10.5062 4.53504 12.3779 3.43811C14.2497 2.34119 16.2435 1.49804 18.3594 0.908644C20.4753 0.319253 22.6888 0.016372 25 0Z" fill="white"/>
</svg>
