<svg width="81" height="68" viewBox="0 0 81 68" fill="none" xmlns="http://www.w3.org/2000/svg">
<g clip-path="url(#clip0_620_715)">
<mask id="path-1-outside-1_620_715" maskUnits="userSpaceOnUse" x="13.3223" y="0" width="817" height="94" fill="black">
<rect fill="white" x="13.3223" width="817" height="94"/>
<path d="M13.3223 0H830.25V88.3465H13.3223V0Z"/>
</mask>
<path d="M830.25 83.3465H13.3223V93.3465H830.25V83.3465Z" fill="black" mask="url(#path-1-outside-1_620_715)"/>
<mask id="mask0_620_715" style="mask-type:luminance" maskUnits="userSpaceOnUse" x="17" y="1" width="40" height="36">
<path d="M17.3369 1.96289H56.8998V36.2659H17.3369V1.96289Z" fill="white"/>
</mask>
<g mask="url(#mask0_620_715)">
<path fill-rule="evenodd" clip-rule="evenodd" d="M33.0247 12.8143L55.3637 1.98633C55.5266 2.3182 55.6766 2.65367 55.8137 2.99374C55.9508 3.3338 56.0743 3.67682 56.1848 4.02344C56.295 4.37039 56.3919 4.71964 56.4751 5.07151C56.5583 5.42338 56.6278 5.77755 56.6837 6.13303C56.7391 6.48884 56.7813 6.84595 56.809 7.20406C56.8372 7.56216 56.8512 7.92059 56.8516 8.27935C56.8516 8.6381 56.838 8.99653 56.8102 9.35464C56.7825 9.71274 56.7411 10.0699 56.6856 10.4257C56.6301 10.7815 56.561 11.1353 56.4782 11.4872C56.3954 11.8394 56.2989 12.1886 56.1887 12.5356C56.0786 12.8822 55.9555 13.2255 55.8188 13.5656C55.6821 13.9057 55.5321 14.2415 55.3696 14.5733C55.2067 14.9049 55.0313 15.2318 54.843 15.5542C54.6548 15.8762 54.4544 16.193 54.2415 16.5042C54.029 16.8154 53.8044 17.1207 53.5676 17.4195C53.3313 17.7185 53.0837 18.0104 52.8243 18.296L39.7317 17.3772L44.2313 23.9253L35.852 27.9838L18.8262 36.2388C18.7137 36.0103 18.6075 35.7797 18.5075 35.5472C18.4071 35.3147 18.3133 35.0803 18.2258 34.8441C18.1383 34.608 18.0571 34.3703 17.9821 34.1312C17.9075 33.8918 17.8387 33.6515 17.777 33.4098C17.7149 33.1678 17.6594 32.9251 17.6106 32.6811C17.5618 32.4371 17.5192 32.1925 17.4833 31.9472C17.4477 31.7016 17.4184 31.4556 17.3958 31.209C17.3731 30.9624 17.3571 30.7155 17.3473 30.4682C17.338 30.221 17.3352 29.9737 17.3391 29.7264C17.343 29.4792 17.3532 29.2322 17.3704 28.9853C17.3876 28.7384 17.411 28.4918 17.4415 28.2458C17.4715 27.9999 17.5087 27.7546 17.552 27.5099C17.5954 27.2653 17.6454 27.0217 17.7016 26.7787C17.7583 26.536 17.8212 26.2946 17.8903 26.0543C17.9598 25.8139 18.0356 25.5748 18.118 25.3374C18.2001 25.1 18.2887 24.8642 18.3837 24.63C18.4782 24.3959 18.5794 24.1634 18.6868 23.9332C18.7938 23.7027 18.9075 23.4747 19.027 23.2485C19.1465 23.0225 19.2719 22.7989 19.4032 22.5775C19.5348 22.3562 19.6723 22.1374 19.8153 21.9213C19.9587 21.7052 20.1075 21.4917 20.2622 21.2812C20.4169 21.071 20.577 20.8634 20.7426 20.6588C20.9087 20.4545 21.0798 20.2531 21.2563 20.0554C21.4329 19.8573 21.6145 19.6625 21.8016 19.4717C21.9883 19.2805 22.1805 19.0929 22.3774 18.9089C22.5747 18.725 22.7762 18.5449 22.9829 18.3688C23.1899 18.1924 23.4008 18.0202 23.6169 17.852C23.8329 17.6838 24.0532 17.5195 24.2778 17.3595C24.5024 17.1998 24.7313 17.044 24.9645 16.8928C25.1973 16.7413 25.4344 16.5944 25.6751 16.4521C25.9161 16.3097 26.1606 16.172 26.409 16.0389C26.6571 15.9057 26.909 15.7772 27.1641 15.6536L33.0247 12.8143Z" fill="#FF790C"/>
</g>
<mask id="mask1_620_715" style="mask-type:luminance" maskUnits="userSpaceOnUse" x="24" y="24" width="42" height="40">
<path d="M24.7998 24.2617H65.7869V63.6674H24.7998V24.2617Z" fill="white"/>
</mask>
<g mask="url(#mask1_620_715)">
<path fill-rule="evenodd" clip-rule="evenodd" d="M33.2987 43.7758L33.2698 43.7318L34.6182 43.0773L34.6291 43.0724L41.0018 39.9819L51.7037 34.7934L56.2033 41.3409L61.9823 31.0435L62.358 30.3706L62.858 29.4806L65.7705 24.2891L64.401 32.387C63.4698 39.1037 62.0104 46.3435 54.4897 49.9862L49.5366 52.3902L26.2951 63.6563C26.1889 63.4406 26.0881 63.2231 25.9928 63.0034C25.8979 62.784 25.808 62.563 25.7241 62.3403C25.6401 62.1177 25.5616 61.8937 25.4889 61.6684C25.4162 61.4428 25.3491 61.2162 25.2881 60.9886C25.2268 60.7607 25.1713 60.5318 25.1217 60.3019C25.0717 60.0724 25.028 59.8418 24.9901 59.6103C24.9522 59.3791 24.9198 59.1469 24.8936 58.9144C24.8674 58.6819 24.8471 58.4491 24.8326 58.2159C24.8178 57.9828 24.8092 57.7493 24.8069 57.5158C24.8041 57.2823 24.8073 57.0488 24.8162 56.8153C24.8256 56.5819 24.8405 56.3487 24.8616 56.1159C24.8823 55.883 24.9092 55.6505 24.9416 55.4187C24.9744 55.1868 25.0127 54.9556 25.0573 54.7251C25.1018 54.4946 25.1518 54.2647 25.2076 54.0361C25.2639 53.8072 25.3256 53.5796 25.3932 53.353C25.4604 53.1264 25.5338 52.9011 25.6127 52.6772C25.6916 52.4532 25.776 52.2308 25.8662 52.0098C25.9565 51.7888 26.0522 51.5697 26.1533 51.352C26.2545 51.1346 26.3612 50.9191 26.4733 50.7053C26.5854 50.4915 26.703 50.28 26.826 50.0704C26.9487 49.8609 27.0768 49.6536 27.21 49.4487C27.3436 49.2437 27.4819 49.0411 27.6256 48.841C27.769 48.641 27.9178 48.4436 28.0713 48.2488C28.2248 48.0543 28.3834 47.8621 28.5463 47.6732C28.7096 47.484 28.8776 47.2981 29.0506 47.1148C29.2233 46.9318 29.4002 46.7518 29.5823 46.575C29.7639 46.3982 29.9502 46.2248 30.1408 46.0546C30.3311 45.8844 30.526 45.7178 30.7252 45.5545C30.9241 45.3915 31.1272 45.2318 31.3342 45.0757C31.5412 44.9199 31.7522 44.7678 31.967 44.6192C32.1815 44.4707 32.4002 44.3264 32.6221 44.1857C32.8444 44.045 33.0698 43.9083 33.2987 43.7758Z" fill="#FF790C"/>
</g>
</g>
<defs>
<clipPath id="clip0_620_715">
<rect width="81" height="68" fill="white"/>
</clipPath>
</defs>
</svg>
